<?xml version="1.0" encoding="UTF-8" standalone="no"?>
<!-- Created with Inkscape (http://www.inkscape.org/) -->

<svg
   width="512"
   height="512"
   viewBox="0 0 135.46667 135.46667"
   version="1.1"
   id="svg1"
   inkscape:version="1.4.4 (dcaf3e7, 2026-05-05)"
   sodipodi:docname="juno.svg"
   xml:space="preserve"
   inkscape:export-filename="cass4.png"
   inkscape:export-xdpi="96"
   inkscape:export-ydpi="96"
   xmlns:inkscape="http://www.inkscape.org/namespaces/inkscape"
   xmlns:sodipodi="http://sodipodi.sourceforge.net/DTD/sodipodi-0.dtd"
   xmlns="http://www.w3.org/2000/svg"
   xmlns:svg="http://www.w3.org/2000/svg"><sodipodi:namedview
     id="namedview1"
     pagecolor="#505050"
     bordercolor="#ffffff"
     borderopacity="1"
     inkscape:showpageshadow="0"
     inkscape:pageopacity="0"
     inkscape:pagecheckerboard="1"
     inkscape:deskcolor="#505050"
     inkscape:document-units="mm"
     showborder="false"
     inkscape:zoom="0.03125"
     inkscape:cx="-28848"
     inkscape:cy="9712"
     inkscape:window-width="1920"
     inkscape:window-height="1009"
     inkscape:window-x="1912"
     inkscape:window-y="108"
     inkscape:window-maximized="1"
     inkscape:current-layer="layer1" /><defs
     id="defs1"><clipPath
       clipPathUnits="userSpaceOnUse"
       id="clipPath3"><ellipse
         style="fill:#ffffff;fill-opacity:1;stroke-width:0.374248"
         id="ellipse3"
         ry="181.70261"
         rx="181.76231"
         cy="256.03653"
         cx="256.01224"
         display="block" /></clipPath><inkscape:path-effect
       effect="powerclip"
       message=""
       id="path-effect3"
       is_visible="true"
       lpeversion="1"
       inverse="true"
       flatten="false"
       hide_clip="false" /><clipPath
       clipPathUnits="userSpaceOnUse"
       id="clipPath4"><path
         style="fill:#ffffff;stroke-width:0.264583"
         d="m -74.835467,998.67929 -51.636473,-7.48353 -40.03697,-9.35442 -53.50736,-17.96055 -49.01725,-18.33465 -24.69568,-14.59291 -37.41774,-20.57979 -17.21215,-17.96047 -19.08305,-11.59952 4.49011,-12.34784 14.59294,-9.35445 37.04354,-4.86431 46.02382,-0.37415 46.77217,-2.24507 46.77216,-5.23851 54.25572,-4.86431 35.172669,-9.3544 22.450637,-0.74837 -8.980257,-19.8314 -2.245064,-22.82481 1.122532,-21.70229 9.354433,-4.86431 18.334691,-8.98025 13.844561,-12.72204 -83.815722,-206.17169 266.41426,-143.6841 493.91409,5.98684 226.00312,257.434 c 0,0 -55.37825,228.99653 -56.87497,236.48008 -1.49669,7.48353 -202.05575,68.84863 -202.05575,68.84863 l -94.29269,-14.96713 -64.17141,-47.52049 -2.05798,-25.25697 -8.41899,-21.70229 -10.10279,-19.45722 -13.2833,-10.47697 -18.89596,-13.09621 -12.72202,-6.17392 -11.59949,-0.93546 -16.27672,-0.56124 -20.39268,0.74835 -15.71543,3.92885 -21.32811,3.92888 -27.87621,8.79316 -21.7023,5.0514 -28.25038,5.23846 -29.7471,5.79977 -30.30837,4.49014 -25.25697,4.86426 -24.88279,3.55473 -20.95393,5.42557 -31.056718,4.303 -26.753679,5.05142 -30.8696319,3.55468 -32.1792501,11.41238 -15.71545,10.10282 -5.799748,8.23188 -4.490128,21.8894 -3.367595,16.65089 -5.238483,18.89596 -1.122532,19.64431 -5.425572,13.09621 -6.548104,11.97364 z"
         id="path5" /></clipPath><clipPath
       clipPathUnits="userSpaceOnUse"
       id="clipPath1"><path
         style="fill:#ffffff;stroke-width:0.264583"
         d="m -53.600903,597.09349 1.964431,-5.8933 6.641647,-5.89328 10.383422,-6.54812 12.347852,-5.5191 11.318864,-4.95787 10.57050965,-3.92885 4.67721675,-2.3386 6.3610146,-2.52571 0.65481,-0.65479 10.196333,-10.66406 66.416478,-10.1028 77.454705,41.53368 102.52459,93.91852 52.759,98.40862 -12.82726,23.01277 -8.06979,2.24896 -6.68073,-3.04271 -4.23334,-2.44737 -11.44323,1.1906 -9.19427,4.56409 -7.9375,4.69635 -7.9375,6.41615 -6.28385,5.62239 -8.33438,6.87917 -5.22552,6.61458 -5.95312,9.72344 -6.21771,7.73906 -5.49011,5.88698 -6.48229,9.12813 -4.03489,5.62239 -0.19844,4.82865 -5.35781,6.61458 -6.41615,7.40831 -4.10104,6.61461 -7.14375,9.78958 -5.4901,8.26823 -5.75469,8.06979 -6.28386,8.13594 -5.42395,8.20206 -5.29167,7.20992 -5.49011,6.74685 -5.22552,7.47448 -5.42395,7.67294 -9.12813,10.38487 -5.09901,7.60873 -7.00568,10.97825 -7.49369,10.7708 -7.90449,8.7464 -10.7576,14.6397 -6.17393,10.2431 -7.904494,10.9914 -5.238482,7.5304 -7.202914,9.7753 -3.414368,4.116 -4.677217,6.3142 -8.185129,7.0626 -3.414369,-10.2898 -1.637024,-15.4349 -2.245064,-9.0738 -1.683798,-11.5059 -3.414368,-18.7089 -2.291837,-13.7978 -2.198293,-10.00921 -2.38538,-12.48815 -2.993418,-11.13179 -3.040191,-11.13176 -0.374178,-6.36106 -1.74424,-3.48311 -1.620573,-5.35781 -4.001823,-11.77396 -4.8408992,-12.54654 -4.9578496,-12.44142 -1.964431,-8.18515 -3.6014569,-8.27863 -1.964431,-6.73523 -0.7483547,-8.1851 -0.8886711,-3.32084 -2.1515197,-5.00462 -0.9354431,-9.63509 -2.5531937,-22.33951 -1.719792,-15.875 -2.778124,-18.25625 c 0,0 -1.984375,-15.54427 -1.984375,-15.80886 0,-0.26458 -1.058334,-16.00729 -1.058334,-16.00729 l -0.132291,-15.21354 -1.852084,-10.58333 -2.513541,-14.2875 -1.719792,-11.77396 -3.108854,-20.96823 -2.579688,-10.12031 -3.571875,-12.36928 -6.217708,-10.71562 -5.490104,-7.47448 -7.606771,-9.06198 -3.307292,-4.49792 -1.091406,-5.35781 -0.06614,-8.69817 -0.363802,-7.97058 1.124479,-7.80521 1.620573,-5.62239 0.727604,-3.73724 0.859896,-3.20807 z"
         id="path2" /></clipPath><clipPath
       clipPathUnits="userSpaceOnUse"
       id="clipPath5"><path
         style="fill:#ffffff;stroke-width:0.264583"
         d="m -962.15729,253.07396 7.80523,0.7276 10.98021,-1.25677 8.53279,-3.43958 6.68075,-5.82084 5.75469,-5.29166 3.96875,-5.15938 1.52133,-5.15937 0.52919,-6.54844 0.19841,-1.12448 0.0661,-8.13594 -3.23392,-33.75669 -11.97369,-55.00407 -22.45064,-76.332174 -14.59291,-60.990905 -83.0674,-89.802561 -68.1003,-11.97367 -1.4966,99.531167 28.4375,117.491683 c 0,0 41.1594,70.34534 41.9077,73.33876 0.7484,2.99342 14.2189,50.13976 14.2189,50.13976 l 41.9078,38.16609 z"
         id="path6" /></clipPath><clipPath
       clipPathUnits="userSpaceOnUse"
       id="clipPath7"><path
         style="fill:#ffffff;stroke-width:0.264583"
         d="m -1356.651,326.56198 6.4161,-11.90625 8.5328,-11.17865 8.9297,-10.31875 5.0271,-8.06979 5.2255,-7.27604 3.5058,-4.82865 3.638,-2.77812 5.5562,10.31875 4.8287,13.36146 4.2333,11.04635 2.8443,6.61458 11.3771,4.23334 24.0621,19.48267 20.9539,80.82233 -3.7418,69.97115 -52.0106,27.31495 -35.5469,-1.49673 -13.8445,-41.53368 -6.361,-38.91444 1.0705,-19.07334 -1.5213,-5.35781 -0.463,-6.28385 1.1244,-2.57969 0.4631,-4.63021 -1.4553,-2.44739 -0.066,-13.49375 0.1323,-10.12032 2.5797,-5.29166 4.3656,-5.35782 0.6615,-2.51354 2.3812,-2.91041 -0.066,-4.10105 -2.5136,-3.9026 -4.0349,-5.35781 -2.9765,-3.04271 -0.3308,-3.83646 z"
         id="path8" /></clipPath><clipPath
       clipPathUnits="userSpaceOnUse"
       id="clipPath10"><path
         style="fill:#ffffff;stroke-width:0.264583"
         d="m -3357.9594,379.94167 -16.5364,5.68854 -57.4588,15.48789 -113.0014,-84.56406 -46.3982,-89.05422 234.9834,-199.810698 c 0,0 227.4998,-38.166087 230.4933,-38.166087 2.9935,0 362.2038,30.682541 362.2038,30.682541 l 164.6379,145.180804 -66.6034,130.21371 -161.6449,21.70229 -63.423,-4.77075 -8.6061,-8.79316 -11.0381,-8.13838 -18.8024,-13.47038 -27.4084,-24.60216 -12.3481,-14.1252 -5.0512,-12.34785 -5.987,-4.58367 -7.6705,-1.96443 -18.9897,0.46772 -11.3186,1.40317 -11.6933,3.46114 -9.2606,1.68379 -4.5839,2.61925 -7.9513,3.36759 -16.0896,1.30962 -7.5771,1.87089 -12.909,2.24506 -11.506,3.92887 -23.2926,5.7062 -9.9155,0.93544 -9.9158,2.43216 -15.2477,2.52569 -24.1345,2.99342 -21.2346,5.79974 -20.8603,3.08698 -26.2861,4.58367 -4.7707,3.74176 -14.9669,0.28064 -7.5772,0.84191 -15.2476,3.27406 -11.5062,4.77075 -9.7285,10.10277 -7.3901,18.24117 -6.0804,14.40582 -3.7417,12.25431 -4.0225,7.76417 -5.2385,10.75759 -7.8576,10.1028 z"
         id="path11" /></clipPath><clipPath
       clipPathUnits="userSpaceOnUse"
       id="clipPath12"><path
         style="fill:#ffffff;stroke-width:0.264583"
         d="m -3847.6656,402.42773 0.5612,17.77341 4.4903,16.46381 16.2766,3.92887 17.3993,-1.6838 15.5284,2.61924 23.9474,5.98683 11.4123,1.49672 18.5219,-17.96052 15.341,-4.86431 11.0385,-6.36101 31.0565,-0.74835 40.9726,-1.30963 81.5705,-3.55468 37.6049,-3.74176 92.2349,-6.36104 4.8103,2.28849 -0.2645,6.87917 14.552,12.83229 14.8167,19.18229 13.7583,18.25625 13.2292,11.90625 18.7854,10.45104 7.1438,3.04271 7.0114,3.70417 5.782,5.09524 7.7642,10.28988 -1.4968,13.00266 -3.1805,16.37024 -1.9646,17.4928 -1.348,42.52418 1.7198,20.76979 1.4552,31.22083 0.2646,21.16667 0.926,37.17396 -0.1323,30.95625 -1.5875,26.72289 0.2646,26.45836 v 35.45414 l 0.1323,39.95211 -0.2646,38.1 -0.1323,46.96354 0.6668,37.33133 9.5416,39.28866 2.4321,34.2372 3.9288,35.7339 4.3032,13.0962 18.8957,-15.9025 5.4258,-1.8709 2.058,4.303 0.9353,24.8828 2.9935,18.7089 5.7996,12.5349 -0.7482,24.6957 -0.7485,36.2953 -6.4035,19.902 -7.6729,24.3416 -4.4979,28.9719 -5.8208,41.6719 -3.3073,5.5562 -4.2334,12.0386 -2.6458,14.1552 -1.1906,19.976 1.3229,53.4458 3.9687,26.8552 1.5875,27.7813 -0.5291,27.5167 0.5291,36.1156 3.5719,24.4739 5.8209,29.898 7.9375,16.9333 9.3927,3.9687 2.3812,-1.5875 7.8052,-8.3343 9.6573,-10.9802 4.2333,-6.2177 3.4396,0.5291 1.5875,3.4396 -0.7937,11.6417 -3.6896,15.6763 2.1021,11.1789 4.2333,6.7469 -1.4552,12.9645 8.2021,8.4667 4.101,6.0854 0.6615,11.5094 -1.0583,10.0542 -5.2917,9.2604 -6.35,13.2291 -8.3344,-0.2645 -6.35,4.8948 -1.0583,7.4083 -0.7938,20.9021 0.6615,12.1708 1.9844,22.225 3.9687,20.1083 1.5875,21.0344 3.3073,17.1979 2.5135,9.9219 4.8948,9.1281 1.4552,7.1438 -0.1322,11.9062 -0.2646,16.0073 2.1166,3.0427 2.249,0.3969 2.7781,-3.0427 3.0427,-3.3073 10.8479,-13.2292 17.9917,-26.0614 13.3615,-17.8594 6.7468,-6.8792 5.0271,-2.1166 0.2646,-2.5136 0.3969,-5.4239 1.9844,-3.5719 16.2718,-21.6958 17.8594,-23.4157 20.6375,-24.6062 2.5136,-9.3927 -0.7938,-17.0656 6.4823,-12.5678 -0.3969,-9.6572 -10.451,-9.2605 -6.2177,-12.1708 0.2646,-21.0344 2.9104,-15.0812 1.5875,-11.774 6.4823,-6.35 -0.9261,-9.9219 -2.3812,-4.101 -1.2658,-19.3468 -2.8062,-4.8643 2.9933,-10.2899 2.9935,-6.1739 4.3031,10.1028 4.49,13.0962 8.0449,2.0579 3.9288,-0.3741 0.5612,-18.896 0.1871,-9.3544 -2.6191,-7.1094 -0.7485,-8.419 8.6061,-6.1739 5.0514,-0.9354 1.8709,5.2385 4.1161,1.3096 2.8062,-4.6773 v -9.5415 l 2.6193,-10.4769 5.6126,-8.7932 1.6838,-5.2385 15.7155,-11.9737 14.2187,-10.1028 7.2964,-3.3675 6.3611,-0.7484 2.8062,2.245 -0.9353,17.7735 -0.3741,10.1028 5.4255,9.1673 8.9803,5.2385 8.419,2.4322 -1.4968,11.4124 -0.9355,10.2899 v 12.9091 l 3.1805,5.0513 4.3032,0.1871 5.9867,-13.6574 10.477,-21.1411 11.9981,-21.9441 13.0969,-20.6375 11.377,-14.949 7.8052,-15.4781 10.0542,-14.0229 7.2761,-9.525 17.4625,-27.649 1.0583,-9.3927 7.4083,-11.9062 17.3302,-26.0615 22.4896,-28.575 9.2604,-11.7739 3.9688,-10.9802 13.2291,-23.1511 4.3657,-6.6146 1.3229,-12.9646 0.2646,-19.4468 1.0583,-16.6688 5.9531,-11.3771 2.5136,-6.35 10.451,-8.0698 15.6104,-9.2604 14.0229,-11.2448 11.9063,-8.4666 10.9802,-12.3032 4.7625,-9.525 11.2448,-10.5833 15.4781,-15.0812 4.7625,-3.4396 1.8521,-12.3031 0.3969,-5.0271 10.9802,-7.2761 8.4667,-8.2021 12.8322,-22.3572 12.9646,-17.3303 11.5094,-13.8906 12.5677,-10.7156 16.9334,-11.5094 21.2989,-17.4625 14.949,-16.80101 11.9062,-11.64169 9.7002,-15.0227 9.1674,-10.47697 10.7576,-11.50596 11.4124,-11.59947 4.4901,-5.61268 10.8512,-0.93544 4.8643,-2.99344 8.8867,0.28067 5.4256,-0.84193 1.029,-2.43213 14.7799,-0.0935 10.3835,-2.89989 12.6285,-4.86431 14.0316,-8.88669 5.5191,-2.05799 4.9579,-9.63506 4.1159,-2.24507 1.6838,-6.82874 3.9289,-5.0514 24.6022,13.93812 13.7124,6.81776 7.4083,-4.23334 0.3969,-4.49791 0.926,-16.0073 -0.6614,-17.06562 9.1809,-99.24971 -74.8354,-259.67907 -220.0165,-306.82543 -287.3682,-163.141311 -243.9635,23.947349 -86.4349,67.539012 -21.3281,1.68379 -57.9974,10.85115 -43.7788,12.53494 -56.688,20.76684 -36.295,19.08304 -23.3863,5.61266 -10.5399,-2.51909 -14.5521,-3.43959 -11.1125,-7.67291 -50.0062,-3.96875 -127.5292,25.92916 c 0,0 -102.3938,87.04792 -102.9229,89.42917 C -3838.575,287.60208 -3860.8,355.6 -3860.8,355.6 Z"
         id="path13" /></clipPath><clipPath
       clipPathUnits="userSpaceOnUse"
       id="clipPath14"><path
         style="fill:#ffffff;stroke-width:0.264583"
         d="m -4309.5333,592.40208 14.5521,0.79375 9.7895,-2.11666 3.175,-25.13542 2.1167,-27.25208 1.3229,-23.01875 -2.1166,-18.52084 -1.5875,-16.13958 2.1166,-1.85208 4.7625,2.64583 9.525,16.66875 12.4354,25.66458 4.2334,15.08125 11.9062,18.78542 7.4084,5.55625 12.9645,-12.43542 5.5563,-9.78958 11.9062,-28.31042 6.8792,-14.81666 19.8438,-21.96042 -15.0813,-99.48333 -49.7417,-105.83334 2.1167,-120.65 -23.2833,-170.391663 -84.6667,-182.033327 -146.05,-211.66667 -150.2833,-102.65834 -141.8167,-3.175 -9.525,227.54167 142.875,221.191669 27.5167,304.799991 67.7333,178.85834 33.8667,70.90833 68.7916,123.825 112.1834,41.275 z"
         id="path15" /></clipPath><clipPath
       clipPathUnits="userSpaceOnUse"
       id="clipPath16"><path
         style="fill:#ffffff;stroke-width:0.264583"
         d="m -5445.964,702.89214 8.419,-16.08963 8.6059,-13.84456 15.9028,-18.52179 19.8313,-18.14759 12.3478,-5.98686 13.0961,-12.72201 23.3863,-23.3861 11.2252,-14.59291 12.3478,-14.96708 18.1478,-19.08304 13.0961,-15.90255 8.419,-3.1805 5.2385,6.73518 3.1805,13.65747 5.2385,21.70229 7.2964,20.01848 5.9868,9.54154 104.0214,130.77497 69.5968,250.69882 2.2453,292.60663 -174.3668,98.0345 -176.6117,-95.0411 5.2385,-197.5656 10.6997,-79.62239 6.6146,-54.76875 -0.2646,-15.875 -6.3857,-4.64328 -8.2317,-8.98025 -0.7485,-11.97364 -0.5612,-22.63775 3.9288,-40.41116 2.0579,-9.16731 11.0384,-14.03165 15.7155,-16.27672 13.8443,-7.29646 4.1161,-2.61925 -5.6126,-3.92885 -8.7931,-7.10938 -7.1094,-3.5547 -5.987,-11.03821 -7.4835,-19.27013 -1.1226,-5.0514 -8.6061,-5.23848 -6.9223,-2.24507 -5.9867,-6.17392 v -4.49014 l -8.0449,-6.73518 -7.1094,-9.35442 z"
         id="path17" /></clipPath><clipPath
       clipPathUnits="userSpaceOnUse"
       id="clipPath8"><path
         style="fill:#f9f9f9;stroke-width:0.264583"
         d="m -7882.4667,2531.5333 508,-16.9333 635,97.3666 245.5334,135.4667 207.4333,220.1334 334.4333,76.2 59.2667,165.1 -50.8,186.2666 -224.3667,143.9334 L -7027.3331,3505.2 -7543.8,3344.3333 -7882.4667,3069.1667 -7950.2,2823.6333 Z"
         id="path9" /></clipPath><clipPath
       clipPathUnits="userSpaceOnUse"
       id="clipPath9"><rect
         style="fill:#f9f9f9;stroke-width:0.264583"
         id="rect10"
         width="2116.6667"
         height="990.59998"
         x="-7514.1665"
         y="3115.7334" /></clipPath><clipPath
       clipPathUnits="userSpaceOnUse"
       id="clipPath11"><rect
         style="fill:#f9f9f9;stroke-width:0.264583"
         id="rect12"
         width="436.03333"
         height="635"
         x="-8860.3662"
         y="3839.6333" /></clipPath><clipPath
       clipPathUnits="userSpaceOnUse"
       id="clipPath13"><path
         style="fill:#f9f9f9;stroke-width:0.264583"
         d="m -7262.4818,914.7638 0.066,-3.14195 2.0505,-4.66328 3.3732,-6.94529 5.4901,-5.85393 3.2414,-3.40651 0.3638,-0.62836 -1.4552,-6.05237 -0.1654,-0.3307 V 882.65 l 2.6789,-2.38125 2.2818,-1.48828 0.9263,0.13229 4.3323,2.61276 0.794,0.42995 6.2177,-3.70417 5.424,-2.3151 6.1846,-1.09141 2.9369,0.40278 2.4791,-4.86434 5.9399,-11.50591 11.1318,-18.05408 1.5436,-2.05796 c 0,0 7.9981,-2.94666 8.1849,-2.94666 0.1873,0 8.6532,-1.5435 8.6532,-1.5435 l 7.7639,-0.70157 4.7239,1.1693 2.1722,2.49801 1.1245,1.88518 0.1323,1.78594 1.7859,1.55443 2.6459,3.20807 2.6458,4.03487 2.6789,4.29948 1.8521,3.90263 2.381,2.51354 2.8776,5.49008 1.8849,3.80341 2.4474,4.53099 1.819,3.93568 2.0177,-0.33073 2.0836,-1.09141 2.4802,-0.42995 2.9107,0.463 3.7372,0.79375 6.3831,1.05836 c 0,0 2.2159,0.0992 2.3482,0.16536 0.132,0.0661 2.7117,1.2237 2.7117,1.2237 l 1.0255,0.23151 3.4065,0.52917 2.2159,0.3307 1.9182,1.12448 1.5214,0.42997 4.0677,-0.26458 3.8034,0.59531 2.4143,1.75287 3.3737,2.51354 3.8362,2.34815 1.2237,0.33073 1.6539,-0.79375 2.9763,-0.57875 c 0,0 3.6547,0.0331 3.8198,0.0661 0.1656,0.0331 4.8125,0.26458 4.8125,0.26458 l 2.1828,-0.0661 2.5466,-1.47174 1.2068,-0.87644 0.2979,-0.94257 4.4815,-4.91133 0.8102,-1.00873 2.9601,-3.40651 4.9443,-5.17591 4.9112,-6.01927 5.7613,-2.46636 3.5782,-1.42656 1.4264,-1.19269 1.5436,-2.68938 2.6892,-4.37319 1.7542,-1.23947 3.2271,-1.77734 5.8465,-1.61364 3.9521,0.0467 3.2509,0.51451 3.1806,0.63143 3.3438,1.44991 1.8944,1.28625 0.9676,0.72855 1.257,-0.26458 3.324,-1.68672 0.9755,0.0992 1.4221,0.76068 1.9349,1.55443 1.7857,0.51263 1.5711,0.23151 1.3724,-0.0496 0.5956,0.39687 -0.8107,1.35599 -1.5375,2.11667 -0.1823,2.08359 -0.3273,0.53298 -0.3977,0.51451 2.3622,2.80633 2.1045,3.15711 2.2453,5.51913 0.8887,3.27403 1.3563,3.85871 0.1852,1.07392 0.9263,3.5388 0.033,4.16719 -0.3638,3.93568 -0.4961,3.70416 -0.2643,1.95131 -8.2053,33.6396 -19.4572,-0.74835 -20.9539,-9.35445 -4.7707,-5.14493 -4.4905,-0.37417 -4.2561,-0.0468 -2.245,-0.60804 -1.8709,0.0935 -2.8998,-0.28062 -2.3212,0.25363 -1.356,0.13229 -0.033,1.98438 -0.9921,2.38125 -1.8852,2.16627 -2.0672,1.86862 -2.563,1.33946 -3.3073,0.62838 -2.9435,-0.0827 -2.712,-0.72761 -1.389,0.0992 -2.6459,0.33073 -2.0174,1.85208 -3.605,1.88516 -2.1828,0.13229 -5.2586,-0.29766 -3.4726,-0.29765 -3.7042,-1.02527 -7.1437,-3.34036 -1.356,-0.56224 0.1653,0.95912 2.2821,3.00963 1.9182,2.71198 2.4143,3.50573 4.1341,5.95312 5.7547,8.83047 1.0584,2.05052 0.7937,1.2237 0.4961,1.38906 0.3307,1.28985 -0.3307,2.48047 -0.5292,2.11666 -1.3229,5.6224 -0.5953,2.97656 -0.7276,2.34818 0.066,1.0914 -0.6943,1.05834 2.381,3.63802 1.8193,2.91042 2.745,4.16718 0.893,2.0836 0.3638,2.08359 0.5289,1.19063 3.8367,2.28203 2.9435,2.71198 4.7956,4.72942 3.0096,3.53883 2.6789,3.3404 0.5623,2.7781 0.463,2.2159 -0.463,1.5214 -0.43,4.6963 0.1982,0.7938 2.3815,0.3968 3.0094,2.1828 2.0838,2.5136 0.7274,1.9513 0.9263,7.8052 0.1323,2.8112 0.7059,7.1662 0.094,5.0514 0.3741,6.7819 4.8176,-0.8886 6.1272,0.6548 3.7417,0.5145 1.5902,-0.3742 5.2853,1.0758 11.88,3.8821 5.4724,1.216 3.6949,1.8241 1.7915,1.3403 0.3307,2.1166 3.8696,3.175 1.2898,1.4552 -0.2315,1.0584 -1.2237,1.0583 -4.7625,-0.033 -4.4979,0.7938 -0.3307,1.1906 -0.2977,1.1576 -4.0349,1.5875 -0.926,0.7937 -0.6615,5.5563 -0.3307,3.8364 -0.5292,3.4727 -1.5544,1.1575 0.6284,1.6867 1.9843,3.1089 1.1576,3.9357 0.3969,2.0836 2.6789,0.1653 3.638,1.9844 2.1497,0.9591 3.9026,1.6867 1.786,0.2316 3.2411,1.3229 0.7276,-0.2977 3.9026,4.5641 11.344,12.8323 47.0959,63.2354 34.6604,10.0542 77.7875,188.9124 42.3333,86.2542 -37.0416,46.5667 -62.4417,32.2791 c 0,0 -53.4458,-27.3843 -53.5781,-27.9135 -0.1323,-0.5292 -1.0584,-15.7427 -1.0584,-15.7427 l -4.6746,-6.1905 -3.3952,-4.459 -5.7877,-10.0211 -1.3229,-2.0174 1.3618,-4.0121 0.024,-0.6197 -0.4093,-0.8536 -0.5731,-0.1052 -0.7014,0.6665 -1.0642,0.093 -0.8768,-2.4906 -1.8828,-4.9345 -1.9526,-5.5424 -1.8008,-4.5369 -1.4967,-3.7418 -2.1749,-4.9813 -4.3264,-11.2837 -6.5482,-13.0027 -2.7594,-3.8353 c 0,0 -3.6483,-4.6305 -3.742,-4.8643 -0.093,-0.2339 -0.7482,-4.0692 -0.7482,-4.0692 l -1.029,-2.6192 -2.3386,-4.9579 -5.6563,-10.6299 -3.0427,-4.9279 -7.1437,-13.2622 -4.5641,-8.136 -6.9453,-12.3362 -4.3987,-8.1359 -6.0854,-10.7487 -4.068,-7.0115 -8.8437,-15.9239 -6.7818,-12.5817 -7.4835,-13.5639 -7.7642,-13.0027 -14.3592,-23.7135 -7.7173,-10.5237 -3.5079,-3.8353 -2.9466,-2.9467 -4.5837,-4.5369 -0.2339,-10.056 0.3273,-6.2675 -0.5143,-1.0289 -3.9291,-2.4322 -6.0804,-2.9934 -5.6126,-4.3966 -4.49,-4.2095 -1.3565,-3.8821 -2.6659,-9.4947 -0.6549,-8.7464 0.1871,-1.6137 c 0,0 -0.3974,-0.9822 -0.3974,-1.0991 0,-0.117 -0.1873,-4.5135 -0.1873,-4.5135 l -0.117,-7.0159 -0.2336,-3.4611 1.0289,-1.941 0.7951,-2.0814 -0.5379,-1.5201 -4.1158,-3.9055 -0.8533,-2.0032 -0.6284,-8.3013 0.1654,-6.35 0.7276,-2.9435 -0.1323,-7.1768 -0.066,-10.2195 0.4961,-3.8034 0.1323,-1.9844 -0.9591,-3.3403 -0.6615,0.066 -9.7895,-2.1167 -1.6537,-1.1906 -1.0583,1.3229 -0.7276,0.9261 -2.3813,-1.0584 -2.1166,0.1985 -3.6381,-2.4474 -5.4901,-3.8365 -6.4161,-4.2333 -5.3578,-5.1594 -5.0933,0.6615 -5.1593,1.5875 -6.8131,1.1245 -1.7197,-0.5954 -9.1282,-9.7234 -0.5953,-2.8443 2.249,-4.2994 1.9182,-5.5563 0.8827,-0.7298 -1.9177,-5.1917 -4.2561,-16.1832 -1.8712,-10.056 -1.0755,-6.6884 0.047,-15.7154 1.2163,-12.7688 2.432,-11.13187 2.7128,-9.12056 1.6838,-3.13375 0.1871,-1.07575 -2.2918,-1.96445 -1.3566,-3.69498 -0.093,-3.69501 -0.608,-2.57247 v -1.54347 l -2.245,-2.05798 -5.1919,-3.8821 -1.9177,-1.4967 -1.029,0.0233 -4.1627,-1.0056 -8.0446,-3.69504 -5.987,-2.80632 -4.4434,-2.33858 -5.4256,-2.80633 -1.7772,-1.73058 -2.7128,-5.56588 -0.608,-2.66603 -0.2807,-0.93546 -2.3386,-0.37414 -3.2272,-0.18712 -3.5081,-0.46773 -3.04,-0.0468 h -1.5904 l -3.1803,0.3742 -26.13,-6.20916 10.7156,-3.175 3.175,-4.10104 z"
         id="path14" /></clipPath><clipPath
       clipPathUnits="userSpaceOnUse"
       id="clipPath17"><path
         style="fill:#f9f9f9;stroke-width:0.264583"
         d="m -9913.08,717.29796 10.2899,-9.16734 6.5482,-0.18709 2.2447,3.55468 0.7485,10.85115 -2.0579,7.29644 -4.8646,13.47038 -0.1871,7.67065 -2.8636,4.33398 -1.4552,7.67294 -0.6612,5.55625 -0.5294,6.87917 0.1778,8.29818 -2.6194,3.64823 -2.0582,3.08695 -12.301,0.0479 -7.6729,9.525 -1.7198,5.15938 -3.7044,3.83646 -3.9685,9.26041 -7.5409,13.36146 -5.2914,9.65729 -4.2336,7.80521 5.2919,9.78958 3.175,9.92188 0.2646,16.13958 0.1897,3.71743 v 12.34786 l 2.3387,4.02241 -0.3739,14.12518 c 0,0 0.3739,18.42823 0.3739,18.98951 0,0.56126 0.2807,11.88011 0.2807,11.88011 l -1.5904,2.15154 -2.8062,0.56126 -5.0514,4.95784 -10.6638,8.79317 -4.4905,3.18053 -5.8933,1.49669 -4.0222,0.0936 -6.5482,-5.05139 -4.8641,-5.42558 -2.6196,-3.92887 -19.8309,10.57052 -42.643,27.05574 -129.646,107.95007 -101.703,85.3847 -229.745,85.3124 -150.419,-111.5049 21.703,-170.62485 157.902,-142.93575 c 0,0 214.03,-109.25976 226.752,-110.75649 12.722,-1.49669 181.102,-32.9276 185.592,-32.9276 4.49,0 87.5571,-5.23849 87.5571,-5.23849 z"
         id="path18" /></clipPath><clipPath
       clipPathUnits="userSpaceOnUse"
       id="clipPath19"><path
         style="fill:#f9f9f9;stroke-width:0.264583"
         d="m -12214.645,352.19442 7.671,-0.65482 1.964,-1.40317 0.842,-4.95784 0.936,-2.43215 3.273,-2.43216 3.836,-1.77734 1.964,1.40317 3.368,5.23848 1.59,0.56126 h 1.216 l 3.368,-2.15151 2.526,-3.55468 2.525,-2.15151 2.339,-0.8419 3.929,0.18708 4.77,0.28062 3.555,0.0935 5.987,-1.87089 7.109,0.56126 7.016,3.08697 7.577,5.14493 8.232,3.27406 6.455,4.11597 1.964,6.54809 c 0,0 -0.468,7.01582 -0.468,7.57708 0,0.56126 2.245,9.63507 2.245,9.63507 l 2.152,5.79975 2.151,3.92887 0.468,-0.0936 2.994,-4.58366 2.993,-4.67723 5.426,-4.20949 c 0,0 5.799,-1.12252 6.174,-1.12252 0.374,0 5.145,0.56126 5.145,0.56126 l 4.303,5.23848 1.403,6.45457 -3.274,12.90912 c 0,0 -2.807,4.49011 -3.274,5.23846 -0.468,0.74837 -5.426,4.49014 -5.426,4.49014 l 0.655,6.08039 0.374,5.23848 3.149,3.69425 2.712,4.23333 3.44,5.09323 c 0,0 3.77,0.8599 4.63,0.8599 0.86,0 14.685,-1.5875 14.685,-1.5875 l 9.921,-0.46302 3.308,1.52135 0.595,5.6224 -2.844,8.26823 -2.381,8.73125 -1.257,4.89479 1.389,2.84427 8.136,4.43177 8.863,4.36562 4.168,2.97657 1.852,5.82083 -0.397,7.01146 -0.265,7.01146 0.132,2.38125 1.125,0.13229 3.307,0.39687 14.949,-0.13229 3.969,-0.0661 4.498,4.03489 6.681,9.39271 6.151,4.23334 1.389,4.56406 -0.07,9.59114 -2.58,6.08542 -1.521,2.51354 5.887,5.49011 1.058,3.43958 -0.07,8.6651 15.611,26.72292 41.01,60.58958 59.531,9.26042 -11.377,-55.03333 -9.525,-77.25834 -37.042,-59.26666 -82.814,-123.825 -18.256,-51.32917 -31.221,-31.22083 -114.565,-7.67292 -55.562,21.43125 -15.346,43.92083 -2.911,35.98334 20.638,15.08125 z"
         id="path20" /></clipPath></defs><g
     inkscape:label="Layer 1"
     inkscape:groupmode="layer"
     id="layer1" /></svg>
